<mxfile host="app.diagrams.net" modified="2023-09-21T15:20:12.384Z" agent="Mozilla/5.0 (Windows NT 10.0; Win64; x64) AppleWebKit/537.36 (KHTML, like Gecko) Chrome/117.0.0.0 Safari/537.36" etag="qHJFnJsiBVGKiFdqEf54" version="21.7.5" type="github">
  <diagram name="Page-1" id="X7S3VyyifATk_8I47DmK">
    <mxGraphModel dx="1473" dy="1015" grid="1" gridSize="10" guides="1" tooltips="1" connect="1" arrows="1" fold="1" page="1" pageScale="1" pageWidth="850" pageHeight="1100" math="0" shadow="0">
      <root>
        <mxCell id="0" />
        <mxCell id="1" parent="0" />
        <mxCell id="JcLkRgq_HFh6Dze76G03-3" style="edgeStyle=orthogonalEdgeStyle;rounded=0;orthogonalLoop=1;jettySize=auto;html=1;entryX=0;entryY=0.5;entryDx=0;entryDy=0;entryPerimeter=0;" edge="1" parent="1" source="JcLkRgq_HFh6Dze76G03-4" target="JcLkRgq_HFh6Dze76G03-13">
          <mxGeometry relative="1" as="geometry" />
        </mxCell>
        <mxCell id="JcLkRgq_HFh6Dze76G03-48" style="edgeStyle=orthogonalEdgeStyle;rounded=0;orthogonalLoop=1;jettySize=auto;html=1;" edge="1" parent="1" source="JcLkRgq_HFh6Dze76G03-4" target="JcLkRgq_HFh6Dze76G03-16">
          <mxGeometry relative="1" as="geometry" />
        </mxCell>
        <mxCell id="JcLkRgq_HFh6Dze76G03-4" value="Lambda functions &lt;br&gt;writes to DynamoDB" style="outlineConnect=0;dashed=0;verticalLabelPosition=bottom;verticalAlign=top;align=center;html=1;shape=mxgraph.aws3.lambda;fillColor=#F58534;gradientColor=none;" vertex="1" parent="1">
          <mxGeometry x="792.7" y="425" width="76.5" height="93" as="geometry" />
        </mxCell>
        <mxCell id="JcLkRgq_HFh6Dze76G03-25" value="Send to Dead Letter&lt;br&gt;Queue after 4 hours" style="edgeStyle=orthogonalEdgeStyle;rounded=0;orthogonalLoop=1;jettySize=auto;html=1;exitX=1;exitY=0.75;exitDx=0;exitDy=0;exitPerimeter=0;" edge="1" parent="1" source="JcLkRgq_HFh6Dze76G03-6" target="JcLkRgq_HFh6Dze76G03-24">
          <mxGeometry relative="1" as="geometry" />
        </mxCell>
        <mxCell id="JcLkRgq_HFh6Dze76G03-69" value="Failure logged" style="edgeStyle=orthogonalEdgeStyle;rounded=0;orthogonalLoop=1;jettySize=auto;html=1;entryX=0;entryY=0.79;entryDx=0;entryDy=0;entryPerimeter=0;" edge="1" parent="1" source="JcLkRgq_HFh6Dze76G03-6" target="JcLkRgq_HFh6Dze76G03-4">
          <mxGeometry relative="1" as="geometry" />
        </mxCell>
        <mxCell id="JcLkRgq_HFh6Dze76G03-6" value="SQS Queue&lt;br&gt;Failed Messages&lt;br&gt;10 min Visibility&lt;br&gt;4 hour Retention" style="sketch=0;points=[[0,0,0],[0.25,0,0],[0.5,0,0],[0.75,0,0],[1,0,0],[0,1,0],[0.25,1,0],[0.5,1,0],[0.75,1,0],[1,1,0],[0,0.25,0],[0,0.5,0],[0,0.75,0],[1,0.25,0],[1,0.5,0],[1,0.75,0]];outlineConnect=0;fontColor=#232F3E;fillColor=#E7157B;strokeColor=#ffffff;dashed=0;verticalLabelPosition=bottom;verticalAlign=top;align=center;html=1;fontSize=12;fontStyle=0;aspect=fixed;shape=mxgraph.aws4.resourceIcon;resIcon=mxgraph.aws4.sqs;" vertex="1" parent="1">
          <mxGeometry x="464.7" y="632.5" width="78" height="78" as="geometry" />
        </mxCell>
        <mxCell id="JcLkRgq_HFh6Dze76G03-7" value="Success logged" style="edgeStyle=orthogonalEdgeStyle;rounded=0;orthogonalLoop=1;jettySize=auto;html=1;" edge="1" parent="1" source="JcLkRgq_HFh6Dze76G03-11" target="JcLkRgq_HFh6Dze76G03-4">
          <mxGeometry relative="1" as="geometry" />
        </mxCell>
        <mxCell id="JcLkRgq_HFh6Dze76G03-10" value="Failed Messages" style="edgeStyle=orthogonalEdgeStyle;rounded=0;orthogonalLoop=1;jettySize=auto;html=1;entryX=0.25;entryY=0;entryDx=0;entryDy=0;entryPerimeter=0;" edge="1" parent="1" source="JcLkRgq_HFh6Dze76G03-11" target="JcLkRgq_HFh6Dze76G03-6">
          <mxGeometry relative="1" as="geometry" />
        </mxCell>
        <mxCell id="JcLkRgq_HFh6Dze76G03-11" value="SQS Queue&lt;br&gt;High Priority" style="sketch=0;points=[[0,0,0],[0.25,0,0],[0.5,0,0],[0.75,0,0],[1,0,0],[0,1,0],[0.25,1,0],[0.5,1,0],[0.75,1,0],[1,1,0],[0,0.25,0],[0,0.5,0],[0,0.75,0],[1,0.25,0],[1,0.5,0],[1,0.75,0]];outlineConnect=0;fontColor=#232F3E;fillColor=#E7157B;strokeColor=#ffffff;dashed=0;verticalLabelPosition=bottom;verticalAlign=top;align=center;html=1;fontSize=12;fontStyle=0;aspect=fixed;shape=mxgraph.aws4.resourceIcon;resIcon=mxgraph.aws4.sqs;" vertex="1" parent="1">
          <mxGeometry x="506.5" y="372.5" width="78" height="78" as="geometry" />
        </mxCell>
        <mxCell id="JcLkRgq_HFh6Dze76G03-28" style="edgeStyle=orthogonalEdgeStyle;rounded=0;orthogonalLoop=1;jettySize=auto;html=1;entryX=0;entryY=0.5;entryDx=0;entryDy=0;" edge="1" parent="1" source="JcLkRgq_HFh6Dze76G03-13" target="JcLkRgq_HFh6Dze76G03-21">
          <mxGeometry relative="1" as="geometry">
            <mxPoint x="859.7" y="471" as="targetPoint" />
          </mxGeometry>
        </mxCell>
        <mxCell id="JcLkRgq_HFh6Dze76G03-31" style="edgeStyle=orthogonalEdgeStyle;rounded=0;orthogonalLoop=1;jettySize=auto;html=1;entryX=0.5;entryY=1;entryDx=0;entryDy=0;" edge="1" parent="1" source="JcLkRgq_HFh6Dze76G03-13" target="JcLkRgq_HFh6Dze76G03-30">
          <mxGeometry relative="1" as="geometry" />
        </mxCell>
        <mxCell id="JcLkRgq_HFh6Dze76G03-13" value="MongoDB / Atlas&lt;br&gt;Stores associated logs&lt;br&gt;for success/fail in a&amp;nbsp;&lt;br&gt;log table" style="outlineConnect=0;dashed=0;verticalLabelPosition=bottom;verticalAlign=top;align=center;html=1;shape=mxgraph.aws3.dynamo_db;fillColor=#2E73B8;gradientColor=none;" vertex="1" parent="1">
          <mxGeometry x="962.7" y="431" width="72" height="81" as="geometry" />
        </mxCell>
        <mxCell id="JcLkRgq_HFh6Dze76G03-15" value="&lt;div style=&quot;text-align: center;&quot;&gt;&lt;b style=&quot;background-color: initial;&quot;&gt;&lt;font style=&quot;font-size: 18px;&quot;&gt;How it works&lt;/font&gt;&lt;/b&gt;&lt;/div&gt;&lt;br&gt;1) Message(s) received from the API are loaded into a MongoDB message table&lt;br&gt;&lt;span style=&quot;white-space: pre;&quot;&gt;&#x9;&lt;/span&gt;- Mongo has a limitation of 16mb per item&lt;br&gt;&lt;span style=&quot;white-space: pre;&quot;&gt;&#x9;&lt;/span&gt;- When a new item is inserted, Mongo DB Streams publishes the event to Event Bus&lt;br&gt;&lt;span style=&quot;white-space: pre;&quot;&gt;&#x9;&lt;/span&gt;- Event Bridge pushes messages to SQS&amp;nbsp;(rules can be setup to filter what gets sent if needed)&lt;br&gt;&lt;br&gt;2) SQS/lambda attempts to process message. (Lamba function controls flow and batch queue)&lt;br&gt;&lt;span style=&quot;white-space: pre;&quot;&gt;&#x9;&lt;/span&gt;- If the message succeeds, write the log to the MongoDB transactions log table&lt;br&gt;&lt;span style=&quot;&quot;&gt;&lt;span style=&quot;&quot;&gt;&amp;nbsp;&amp;nbsp;&amp;nbsp;&amp;nbsp;&lt;span style=&quot;&quot;&gt;&lt;span style=&quot;white-space: pre;&quot;&gt;&amp;nbsp;&amp;nbsp;&amp;nbsp;&amp;nbsp;&lt;span style=&quot;white-space: pre;&quot;&gt;&#x9;&lt;/span&gt;&lt;/span&gt;&lt;/span&gt;&lt;/span&gt;&lt;/span&gt;- If the message fails, it is logged to MongoDB and sent to the failed messages queue&lt;br&gt;&lt;span style=&quot;white-space: pre;&quot;&gt;&#x9;&lt;span style=&quot;white-space: pre;&quot;&gt;&#x9;&lt;span style=&quot;white-space: pre;&quot;&gt;&#x9;&lt;/span&gt;&lt;/span&gt;-&lt;/span&gt;&amp;nbsp;Retry to send the failed message every 10 minutes for 4 hours. Log each failure in the MongoDB transactions log table&lt;br&gt;&lt;span style=&quot;&quot;&gt;&lt;span style=&quot;&quot;&gt;&amp;nbsp;&amp;nbsp;&amp;nbsp;&amp;nbsp;&lt;/span&gt;&lt;/span&gt;&lt;span style=&quot;&quot;&gt;&lt;span style=&quot;&quot;&gt;&amp;nbsp;&amp;nbsp;&amp;nbsp;&amp;nbsp;&lt;span style=&quot;&quot;&gt;&lt;span style=&quot;white-space: pre;&quot;&gt;&amp;nbsp;&amp;nbsp;&amp;nbsp;&amp;nbsp;&lt;span style=&quot;white-space: pre;&quot;&gt;&#x9;&lt;span style=&quot;white-space: pre;&quot;&gt;&#x9;&lt;span style=&quot;white-space: pre;&quot;&gt;&#x9;&lt;/span&gt;&lt;/span&gt;&lt;/span&gt;-If the message still fails after 4 hours&lt;/span&gt;&lt;/span&gt;&lt;/span&gt;&lt;/span&gt;, it&#39;s sent to the dead letter queue. Log to MongoDB and delete&lt;br&gt;&lt;br&gt;3) MongoDB is scanned monthly for records older than 90 days. Those records are migrated to an S3 Infrequent Access bucket.&lt;br&gt;&lt;span style=&quot;white-space: pre;&quot;&gt;&#x9;&lt;/span&gt;- If data exceeds the expiry date, use Kinesis/Lambda function to delete it from MongoDB and load it to S3&lt;br&gt;&lt;span style=&quot;white-space: pre;&quot;&gt;&#x9;&lt;/span&gt;- Glue crawler catalogs S3 objects. Configure to only catalog new records on a monthly batch run.&lt;br&gt;&lt;br&gt;4) Client can retrieve warm transaction data from MongoDB&lt;br&gt;&lt;br&gt;5) Cold data can be queried internally via Athena" style="rounded=0;whiteSpace=wrap;html=1;align=left;" vertex="1" parent="1">
          <mxGeometry x="70" y="792.5" width="770" height="360" as="geometry" />
        </mxCell>
        <mxCell id="JcLkRgq_HFh6Dze76G03-16" value="CloudWatch&lt;br&gt;SQS Metrics" style="outlineConnect=0;dashed=0;verticalLabelPosition=bottom;verticalAlign=top;align=center;html=1;shape=mxgraph.aws3.cloudwatch;fillColor=#759C3E;gradientColor=none;" vertex="1" parent="1">
          <mxGeometry x="712.45" y="277" width="82.5" height="93" as="geometry" />
        </mxCell>
        <mxCell id="JcLkRgq_HFh6Dze76G03-82" style="edgeStyle=orthogonalEdgeStyle;rounded=0;orthogonalLoop=1;jettySize=auto;html=1;" edge="1" parent="1" source="JcLkRgq_HFh6Dze76G03-20" target="JcLkRgq_HFh6Dze76G03-81">
          <mxGeometry relative="1" as="geometry" />
        </mxCell>
        <mxCell id="JcLkRgq_HFh6Dze76G03-20" value="API Requests" style="image;aspect=fixed;perimeter=ellipsePerimeter;html=1;align=center;shadow=0;dashed=0;spacingTop=3;image=img/lib/active_directory/laptop_client.svg;" vertex="1" parent="1">
          <mxGeometry x="73.8" y="472.5" width="77.4" height="86" as="geometry" />
        </mxCell>
        <mxCell id="JcLkRgq_HFh6Dze76G03-21" value="Client can view 90 days of logs &lt;br&gt;indexed by clientID and date" style="image;aspect=fixed;perimeter=ellipsePerimeter;html=1;align=center;shadow=0;dashed=0;spacingTop=3;image=img/lib/active_directory/laptop_client.svg;" vertex="1" parent="1">
          <mxGeometry x="1154.5" y="562.5" width="77.4" height="86" as="geometry" />
        </mxCell>
        <mxCell id="JcLkRgq_HFh6Dze76G03-22" value="&lt;b&gt;&lt;font style=&quot;font-size: 17px;&quot;&gt;Technologies used&lt;/font&gt;&lt;/b&gt;&lt;br&gt;&lt;br&gt;&lt;div style=&quot;text-align: left;&quot;&gt;S3&lt;/div&gt;&lt;div style=&quot;text-align: left;&quot;&gt;SQS&lt;/div&gt;&lt;div style=&quot;text-align: left;&quot;&gt;Glue&lt;/div&gt;&lt;div style=&quot;text-align: left;&quot;&gt;Athena&lt;/div&gt;&lt;div style=&quot;text-align: left;&quot;&gt;Kinesis&lt;/div&gt;&lt;div style=&quot;text-align: left;&quot;&gt;Lambda&lt;/div&gt;&lt;div style=&quot;text-align: left;&quot;&gt;MongoDB&lt;/div&gt;&lt;div style=&quot;text-align: left;&quot;&gt;Event Bridge&lt;/div&gt;&lt;div style=&quot;text-align: left;&quot;&gt;CloudWatch&lt;/div&gt;" style="rounded=0;whiteSpace=wrap;html=1;" vertex="1" parent="1">
          <mxGeometry x="250" y="321.5" width="182" height="180" as="geometry" />
        </mxCell>
        <mxCell id="JcLkRgq_HFh6Dze76G03-54" value="Failure logged" style="edgeStyle=orthogonalEdgeStyle;rounded=0;orthogonalLoop=1;jettySize=auto;html=1;entryX=1;entryY=0.79;entryDx=0;entryDy=0;entryPerimeter=0;" edge="1" parent="1" source="JcLkRgq_HFh6Dze76G03-24" target="JcLkRgq_HFh6Dze76G03-4">
          <mxGeometry relative="1" as="geometry" />
        </mxCell>
        <mxCell id="JcLkRgq_HFh6Dze76G03-24" value="SQS&lt;br&gt;Dead Letter Queue" style="sketch=0;points=[[0,0,0],[0.25,0,0],[0.5,0,0],[0.75,0,0],[1,0,0],[0,1,0],[0.25,1,0],[0.5,1,0],[0.75,1,0],[1,1,0],[0,0.25,0],[0,0.5,0],[0,0.75,0],[1,0.25,0],[1,0.5,0],[1,0.75,0]];outlineConnect=0;fontColor=#232F3E;fillColor=#E7157B;strokeColor=#ffffff;dashed=0;verticalLabelPosition=bottom;verticalAlign=top;align=center;html=1;fontSize=12;fontStyle=0;aspect=fixed;shape=mxgraph.aws4.resourceIcon;resIcon=mxgraph.aws4.sqs;" vertex="1" parent="1">
          <mxGeometry x="714.7" y="662.5" width="78" height="78" as="geometry" />
        </mxCell>
        <mxCell id="JcLkRgq_HFh6Dze76G03-29" value="&lt;div style=&quot;text-align: center;&quot;&gt;&lt;b style=&quot;&quot;&gt;&lt;font style=&quot;font-size: 18px;&quot;&gt;Notes&lt;/font&gt;&lt;/b&gt;&lt;/div&gt;&lt;br&gt;&lt;b&gt;&lt;font style=&quot;font-size: 14px;&quot;&gt;SQS&lt;/font&gt;&lt;/b&gt;&lt;br&gt;&lt;br&gt;Max Delay = 15minutes&lt;br&gt;Visibility Timeout: Default = 30 secs | Max = 12hours&lt;br&gt;Attributes: Max 10 metadata attributes&lt;br&gt;Batched message ID max 80 characters&lt;br&gt;Message batch: 10 messages max&lt;br&gt;Retention: Default = 4 days | Max 14 days&lt;br&gt;Standard queues are nearly unlimited API calls per second&lt;br&gt;In-flight quota = 120,000 messages for standard queue&lt;br&gt;&lt;br&gt;&lt;b&gt;&lt;font style=&quot;font-size: 14px;&quot;&gt;MongoDB&lt;/font&gt;&lt;/b&gt;&lt;br&gt;&lt;br&gt;Configure TTL policy to 90 days&lt;br&gt;Max item size of 16mb&lt;br&gt;Data Types: String, number, binary, set&lt;br&gt;&lt;br&gt;Lambda function archives expired records to S3 via Kinesis&lt;br&gt;Ensure Lambda functions are optimized for memory and have reserved concurrency&amp;nbsp;&lt;br&gt;&lt;br&gt;&lt;b&gt;&lt;font style=&quot;font-size: 14px;&quot;&gt;S3&lt;/font&gt;&lt;/b&gt;&lt;br&gt;&lt;br&gt;Archived Messages bucket (IA)&lt;br&gt;Catalog data with Glue crawler to be easily queried by Athena" style="rounded=0;whiteSpace=wrap;html=1;align=left;" vertex="1" parent="1">
          <mxGeometry x="860" y="792.5" width="400" height="467.5" as="geometry" />
        </mxCell>
        <mxCell id="JcLkRgq_HFh6Dze76G03-70" style="edgeStyle=orthogonalEdgeStyle;rounded=0;orthogonalLoop=1;jettySize=auto;html=1;" edge="1" parent="1" source="JcLkRgq_HFh6Dze76G03-30" target="JcLkRgq_HFh6Dze76G03-50">
          <mxGeometry relative="1" as="geometry" />
        </mxCell>
        <mxCell id="JcLkRgq_HFh6Dze76G03-30" value="Setup TTL Policy of 90 days" style="rounded=0;whiteSpace=wrap;html=1;" vertex="1" parent="1">
          <mxGeometry x="908.7" y="370" width="180" height="30" as="geometry" />
        </mxCell>
        <mxCell id="JcLkRgq_HFh6Dze76G03-63" style="edgeStyle=orthogonalEdgeStyle;rounded=0;orthogonalLoop=1;jettySize=auto;html=1;" edge="1" parent="1" source="JcLkRgq_HFh6Dze76G03-33" target="JcLkRgq_HFh6Dze76G03-57">
          <mxGeometry relative="1" as="geometry" />
        </mxCell>
        <mxCell id="JcLkRgq_HFh6Dze76G03-33" value="Kinesis Data Firehose" style="sketch=0;points=[[0,0,0],[0.25,0,0],[0.5,0,0],[0.75,0,0],[1,0,0],[0,1,0],[0.25,1,0],[0.5,1,0],[0.75,1,0],[1,1,0],[0,0.25,0],[0,0.5,0],[0,0.75,0],[1,0.25,0],[1,0.5,0],[1,0.75,0]];outlineConnect=0;fontColor=#232F3E;fillColor=#8C4FFF;strokeColor=#ffffff;dashed=0;verticalLabelPosition=bottom;verticalAlign=top;align=center;html=1;fontSize=12;fontStyle=0;aspect=fixed;shape=mxgraph.aws4.resourceIcon;resIcon=mxgraph.aws4.kinesis_data_firehose;" vertex="1" parent="1">
          <mxGeometry x="952.7" y="90" width="78" height="78" as="geometry" />
        </mxCell>
        <mxCell id="JcLkRgq_HFh6Dze76G03-72" style="edgeStyle=orthogonalEdgeStyle;rounded=0;orthogonalLoop=1;jettySize=auto;html=1;entryX=0.5;entryY=1;entryDx=0;entryDy=0;entryPerimeter=0;" edge="1" parent="1" source="JcLkRgq_HFh6Dze76G03-34" target="JcLkRgq_HFh6Dze76G03-33">
          <mxGeometry relative="1" as="geometry" />
        </mxCell>
        <mxCell id="JcLkRgq_HFh6Dze76G03-34" value="Kinesis Data Streams" style="sketch=0;points=[[0,0,0],[0.25,0,0],[0.5,0,0],[0.75,0,0],[1,0,0],[0,1,0],[0.25,1,0],[0.5,1,0],[0.75,1,0],[1,1,0],[0,0.25,0],[0,0.5,0],[0,0.75,0],[1,0.25,0],[1,0.5,0],[1,0.75,0]];outlineConnect=0;fontColor=#232F3E;fillColor=#8C4FFF;strokeColor=#ffffff;dashed=0;verticalLabelPosition=bottom;verticalAlign=top;align=center;html=1;fontSize=12;fontStyle=0;aspect=fixed;shape=mxgraph.aws4.resourceIcon;resIcon=mxgraph.aws4.kinesis_data_streams;" vertex="1" parent="1">
          <mxGeometry x="952.7" y="232.5" width="78" height="78" as="geometry" />
        </mxCell>
        <mxCell id="JcLkRgq_HFh6Dze76G03-38" value="Lambda function selects TTL records and posts to S3&lt;br&gt;*Process monthly" style="rounded=0;whiteSpace=wrap;html=1;" vertex="1" parent="1">
          <mxGeometry x="802.7" y="152.5" width="120" height="60" as="geometry" />
        </mxCell>
        <mxCell id="JcLkRgq_HFh6Dze76G03-39" value="Athena&lt;br&gt;Query Archived S3 objects" style="outlineConnect=0;dashed=0;verticalLabelPosition=bottom;verticalAlign=top;align=center;html=1;shape=mxgraph.aws3.athena;fillColor=#F58534;gradientColor=none;" vertex="1" parent="1">
          <mxGeometry x="1154.95" y="385" width="76.5" height="76.5" as="geometry" />
        </mxCell>
        <mxCell id="JcLkRgq_HFh6Dze76G03-62" style="edgeStyle=orthogonalEdgeStyle;rounded=0;orthogonalLoop=1;jettySize=auto;html=1;" edge="1" parent="1" source="JcLkRgq_HFh6Dze76G03-41" target="JcLkRgq_HFh6Dze76G03-39">
          <mxGeometry relative="1" as="geometry" />
        </mxCell>
        <mxCell id="JcLkRgq_HFh6Dze76G03-41" value="Glue&lt;br&gt;Catalogs Archive Data" style="outlineConnect=0;dashed=0;verticalLabelPosition=bottom;verticalAlign=top;align=center;html=1;shape=mxgraph.aws3.glue;fillColor=#F58534;gradientColor=none;" vertex="1" parent="1">
          <mxGeometry x="1152.7" y="222" width="82.5" height="99" as="geometry" />
        </mxCell>
        <mxCell id="JcLkRgq_HFh6Dze76G03-71" style="edgeStyle=orthogonalEdgeStyle;rounded=0;orthogonalLoop=1;jettySize=auto;html=1;entryX=0;entryY=0.5;entryDx=0;entryDy=0;entryPerimeter=0;" edge="1" parent="1" source="JcLkRgq_HFh6Dze76G03-50" target="JcLkRgq_HFh6Dze76G03-34">
          <mxGeometry relative="1" as="geometry" />
        </mxCell>
        <mxCell id="JcLkRgq_HFh6Dze76G03-50" value="" style="outlineConnect=0;dashed=0;verticalLabelPosition=bottom;verticalAlign=top;align=center;html=1;shape=mxgraph.aws3.lambda;fillColor=#F58534;gradientColor=none;" vertex="1" parent="1">
          <mxGeometry x="832.2" y="225" width="76.5" height="93" as="geometry" />
        </mxCell>
        <mxCell id="JcLkRgq_HFh6Dze76G03-61" style="edgeStyle=orthogonalEdgeStyle;rounded=0;orthogonalLoop=1;jettySize=auto;html=1;" edge="1" parent="1" source="JcLkRgq_HFh6Dze76G03-57" target="JcLkRgq_HFh6Dze76G03-41">
          <mxGeometry relative="1" as="geometry" />
        </mxCell>
        <mxCell id="JcLkRgq_HFh6Dze76G03-57" value="S3 Holds data older than 90 days" style="sketch=0;points=[[0,0,0],[0.25,0,0],[0.5,0,0],[0.75,0,0],[1,0,0],[0,1,0],[0.25,1,0],[0.5,1,0],[0.75,1,0],[1,1,0],[0,0.25,0],[0,0.5,0],[0,0.75,0],[1,0.25,0],[1,0.5,0],[1,0.75,0]];outlineConnect=0;fontColor=#232F3E;fillColor=#7AA116;strokeColor=#ffffff;dashed=0;verticalLabelPosition=bottom;verticalAlign=top;align=center;html=1;fontSize=12;fontStyle=0;aspect=fixed;shape=mxgraph.aws4.resourceIcon;resIcon=mxgraph.aws4.s3;" vertex="1" parent="1">
          <mxGeometry x="1154.95" y="90" width="78" height="78" as="geometry" />
        </mxCell>
        <mxCell id="JcLkRgq_HFh6Dze76G03-84" style="edgeStyle=orthogonalEdgeStyle;rounded=0;orthogonalLoop=1;jettySize=auto;html=1;entryX=0.5;entryY=0;entryDx=0;entryDy=0;entryPerimeter=0;" edge="1" parent="1" source="JcLkRgq_HFh6Dze76G03-86" target="JcLkRgq_HFh6Dze76G03-11">
          <mxGeometry relative="1" as="geometry" />
        </mxCell>
        <mxCell id="JcLkRgq_HFh6Dze76G03-94" style="edgeStyle=orthogonalEdgeStyle;rounded=0;orthogonalLoop=1;jettySize=auto;html=1;" edge="1" parent="1" source="JcLkRgq_HFh6Dze76G03-79" target="JcLkRgq_HFh6Dze76G03-87">
          <mxGeometry relative="1" as="geometry" />
        </mxCell>
        <mxCell id="JcLkRgq_HFh6Dze76G03-79" value="Event Bridge" style="sketch=0;points=[[0,0,0],[0.25,0,0],[0.5,0,0],[0.75,0,0],[1,0,0],[0,1,0],[0.25,1,0],[0.5,1,0],[0.75,1,0],[1,1,0],[0,0.25,0],[0,0.5,0],[0,0.75,0],[1,0.25,0],[1,0.5,0],[1,0.75,0]];outlineConnect=0;fontColor=#232F3E;fillColor=#E7157B;strokeColor=#ffffff;dashed=0;verticalLabelPosition=bottom;verticalAlign=top;align=center;html=1;fontSize=12;fontStyle=0;aspect=fixed;shape=mxgraph.aws4.resourceIcon;resIcon=mxgraph.aws4.eventbridge;" vertex="1" parent="1">
          <mxGeometry x="326.5" y="194.25" width="78" height="78" as="geometry" />
        </mxCell>
        <mxCell id="JcLkRgq_HFh6Dze76G03-88" style="edgeStyle=orthogonalEdgeStyle;rounded=0;orthogonalLoop=1;jettySize=auto;html=1;entryX=0;entryY=0.5;entryDx=0;entryDy=0;entryPerimeter=0;" edge="1" parent="1" source="JcLkRgq_HFh6Dze76G03-85" target="JcLkRgq_HFh6Dze76G03-79">
          <mxGeometry relative="1" as="geometry" />
        </mxCell>
        <mxCell id="JcLkRgq_HFh6Dze76G03-81" value="MongoDB / Atlas&lt;br&gt;Records incoming&amp;nbsp;&lt;br&gt;messages in a&lt;br&gt;message table" style="outlineConnect=0;dashed=0;verticalLabelPosition=bottom;verticalAlign=top;align=center;html=1;shape=mxgraph.aws3.dynamo_db;fillColor=#2E73B8;gradientColor=none;" vertex="1" parent="1">
          <mxGeometry x="76.5" y="196" width="72" height="81" as="geometry" />
        </mxCell>
        <mxCell id="JcLkRgq_HFh6Dze76G03-89" value="" style="edgeStyle=orthogonalEdgeStyle;rounded=0;orthogonalLoop=1;jettySize=auto;html=1;entryX=0;entryY=0.5;entryDx=0;entryDy=0;entryPerimeter=0;" edge="1" parent="1" source="JcLkRgq_HFh6Dze76G03-81" target="JcLkRgq_HFh6Dze76G03-78">
          <mxGeometry relative="1" as="geometry">
            <mxPoint x="121.5" y="605.25" as="sourcePoint" />
            <mxPoint x="278.5" y="523.25" as="targetPoint" />
          </mxGeometry>
        </mxCell>
        <mxCell id="JcLkRgq_HFh6Dze76G03-78" value="Event bus" style="sketch=0;outlineConnect=0;fontColor=#232F3E;gradientColor=none;fillColor=#E7157B;strokeColor=none;dashed=0;verticalLabelPosition=bottom;verticalAlign=top;align=center;html=1;fontSize=12;fontStyle=0;aspect=fixed;pointerEvents=1;shape=mxgraph.aws4.eventbridge_saas_partner_event_bus_resource;" vertex="1" parent="1">
          <mxGeometry x="186.5" y="213.25" width="46.5" height="46.5" as="geometry" />
        </mxCell>
        <mxCell id="JcLkRgq_HFh6Dze76G03-90" value="" style="edgeStyle=orthogonalEdgeStyle;rounded=0;orthogonalLoop=1;jettySize=auto;html=1;entryX=0;entryY=0.5;entryDx=0;entryDy=0;entryPerimeter=0;" edge="1" parent="1" source="JcLkRgq_HFh6Dze76G03-78" target="JcLkRgq_HFh6Dze76G03-85">
          <mxGeometry relative="1" as="geometry">
            <mxPoint x="193.5" y="510.75" as="sourcePoint" />
            <mxPoint x="278.5" y="436.75" as="targetPoint" />
          </mxGeometry>
        </mxCell>
        <mxCell id="JcLkRgq_HFh6Dze76G03-85" value="Event" style="sketch=0;outlineConnect=0;fontColor=#232F3E;gradientColor=none;fillColor=#E7157B;strokeColor=none;dashed=0;verticalLabelPosition=bottom;verticalAlign=top;align=center;html=1;fontSize=12;fontStyle=0;aspect=fixed;pointerEvents=1;shape=mxgraph.aws4.event_resource;" vertex="1" parent="1">
          <mxGeometry x="256.5" y="216.25" width="37" height="37" as="geometry" />
        </mxCell>
        <mxCell id="JcLkRgq_HFh6Dze76G03-93" style="edgeStyle=orthogonalEdgeStyle;rounded=0;orthogonalLoop=1;jettySize=auto;html=1;" edge="1" parent="1" source="JcLkRgq_HFh6Dze76G03-87" target="JcLkRgq_HFh6Dze76G03-86">
          <mxGeometry relative="1" as="geometry" />
        </mxCell>
        <mxCell id="JcLkRgq_HFh6Dze76G03-87" value="Rule" style="sketch=0;outlineConnect=0;fontColor=#232F3E;gradientColor=none;fillColor=#E7157B;strokeColor=none;dashed=0;verticalLabelPosition=bottom;verticalAlign=top;align=center;html=1;fontSize=12;fontStyle=0;aspect=fixed;pointerEvents=1;shape=mxgraph.aws4.rule_2;" vertex="1" parent="1">
          <mxGeometry x="446.5" y="213.25" width="41.05" height="40" as="geometry" />
        </mxCell>
        <mxCell id="JcLkRgq_HFh6Dze76G03-86" value="Event" style="sketch=0;outlineConnect=0;fontColor=#232F3E;gradientColor=none;fillColor=#E7157B;strokeColor=none;dashed=0;verticalLabelPosition=bottom;verticalAlign=top;align=center;html=1;fontSize=12;fontStyle=0;aspect=fixed;pointerEvents=1;shape=mxgraph.aws4.event_resource;" vertex="1" parent="1">
          <mxGeometry x="525.5" y="213.25" width="40" height="40" as="geometry" />
        </mxCell>
        <mxCell id="JcLkRgq_HFh6Dze76G03-125" value="&lt;font style=&quot;&quot;&gt;&lt;b style=&quot;&quot;&gt;&lt;font style=&quot;font-size: 18px;&quot;&gt;MongoDB Tables&lt;/font&gt;&lt;/b&gt;&lt;br&gt;&lt;br&gt;&lt;div style=&quot;font-size: 12px; text-align: left;&quot;&gt;The transactions table will house all incoming messages from the client. It will be indexed by transactionID, groupID, and Date.&lt;/div&gt;&lt;div style=&quot;font-size: 12px; text-align: left;&quot;&gt;&lt;br&gt;&lt;/div&gt;&lt;div style=&quot;font-size: 12px; text-align: left;&quot;&gt;The logs table will house all data regarding the message process status. It will be indexed by logID and transactionID.&lt;/div&gt;&lt;div style=&quot;font-size: 12px; text-align: left;&quot;&gt;&lt;br&gt;&lt;/div&gt;&lt;div style=&quot;font-size: 12px; text-align: left;&quot;&gt;Due to the one-to-many relationship of transactions to logs, logs will be referenced from the logs table rather than embedded in the transaction. This is to prevent bloat and improve query performance. Note that not all fields are represented below, just the indexes.&lt;/div&gt;&lt;div style=&quot;font-size: 12px; text-align: left;&quot;&gt;&lt;br&gt;&lt;/div&gt;&lt;div style=&quot;font-size: 12px; text-align: left;&quot;&gt;The below table references the entity relationship of the indexes.&lt;/div&gt;&lt;div style=&quot;font-size: 12px; text-align: left;&quot;&gt;&lt;br&gt;&lt;/div&gt;&lt;div style=&quot;font-size: 12px; text-align: left;&quot;&gt;** Note that not all fields are represented below, just the indexes **&lt;/div&gt;&lt;/font&gt;" style="whiteSpace=wrap;html=1;" vertex="1" parent="1">
          <mxGeometry x="70" y="1192.5" width="770" height="217.5" as="geometry" />
        </mxCell>
        <mxCell id="JcLkRgq_HFh6Dze76G03-126" value="&lt;div&gt;&lt;img src=&quot;data:image/png;base64,iVBORw0KGgoAAAANSUhEUgAAAt0AAADnCAYAAADCSeoQAAAAAXNSR0IArs4c6QAAIABJREFUeF7tnW2oXcW9/+fEJjeaNo3oaTyaW4kmNR4fIgk3t+q/Nv1TvIGqaN7UF9W8SloKPlCk9YX1qUKxSNEI0iZQSPumgqSQCopQsFrrrZBUUWLF1hBubDynSfNgvE209Fx+W2Y7Z87stWbtvR5+s9Zng7Q5e9bMb77fmbU+6zez1h6bmZmZMXxQAAVQAAVQAAVQAAVQAAUqU2AM6K5MWypGARRAARRAARRAARRAgZ4CQDcDAQVQAAVQAAVQAAVQAAUqVgDorlhgqkcBFEABFEABFEABFEABoJsxgAIogAIogAIogAIogAIVKwB0Vyww1aMACqAACqAACqAACqAA0M0YQAEUQAEUQAEUQAEUQIGKFQC6KxaY6lEABVAABVAABVAABVAA6GYMoAAKoAAKoAAKoAAKoEDFCgDdFQtM9SiAAiiAAiiAAiiAAigAdDMGUAAFUAAFUAAFUAAFUKBiBYDuigWmehRAARRAARRAARRAARQoDN3PP/88qqEACqAAClSgwCWXXGLGx8crqJkqUQAFUAAFmlZgKOiemJhoOm7aRwEUQIFWKXDi5Cnz+XMnWgfdMzMzrfKJzqAACqCAVWBsbKyQGEB3IbkojAIogALVKNBW6J6enjZvvvlmNaJRKwqgAAo0pIAkFNavX1+odaC7kFwURgEUQIFqFGgzdB+YmjKLFiyoRjhqRQEUQIEGFDh48CDQ3YDuNIkCKIACIysAdI8sIRWgAAqgQG0KAN21SU1DKIACKFCuAkB3uXpSGwqgAApUqQDQXaW61I0CKIACFSoAdFcoLlWjAAqgQMkKAN0lC0p1KIACKFCXAkB3XUrTDgqgAAqMrgDQPbqG1IACKIACjSgAdDciO42iAAqgwFAKAN1DycZBKIACKNC8AkB38x4QAQqgAArEKgB0xypFORRAARRQpgDQrcwQwkEBFECBDAWAboYHCqAACiSqANCdqHGEjQIo0EkFgO5O2k6nUQAF2qAA0N0GF+kDCqBAVxQAurviNP1EARRonQJAd+sspUMogAItVgDobrG5dA0FUKDdCgDd7faX3qEACrRLAaC7XX7SGxRAgQ4pAHR3yGy6igIokLwCQHfyFtIBFECBrioAdHfVefqNAiiQogJAd4quETMKoAAKGGOAboYBCqAACqSjANCdjldEigIogAKzFAC6GRAogAIokI4CQHc6XhEpCqAACgDdjAEUQAEUSFQBoDtR47SH/ac//cn85je/MZs3bzYLFizQHu5I8f32t781MpFuvvnmXj2//OUvza9//Wtz/fXX9/82UgMcjAIDFCDTzdBAARRAgXQUALrT8SqZSAVCt23bZq666qrWQ3cIsIHuZIZq8oEC3clbSAdQAAU6pADQ3SGz6+pq16G7Lp1pBwWAbsYACrC6yBhIRwGgOx2vkojUZnndYLds2dL7p81+r1ixwvz85z/v/e373/++WbVqlbGgbo87++yzzXe/+11z3nnnmffff9888sgj5s9//nOv/KuvvtrbviEft5w91o8hVMat0x7nbwf58MMPzfbt283vf//7fndsmdB3tj82Pr++UJuizZe//OVe/VX0M4lBQ5BDKwB0Dy0dB7ZIAVYXW2Rmy7sCdLfc4Lq7lwfdbjwC33fddZfZs2dPD8j9j4XlxYsX96E71B9bz2c+85n+fmq/nFsmBL8+eOeV2bhx4xwgz4Ju2eP+gx/8IGiHhfOsNuXAov2s23vaq18BoLt+zWlRnwJAtz5PiCisANDNyChdgdD2EjeTHcruHj16tJ/Zfvfdd82PfvQjc+jQoV5mW7LdNtPtgqcLslLuggsu6IOwbcMFWfs3G4ubibYnbbsP/eWXX+7dCLhZctue+7eYPd1uVtzd5+7HX3Y/SzeWCtUpAHSrs4SAGlBgEHTnrS7aUN3rk1xjvvnNb5qf/vSn/dVVWY2VT8wqagPdp8mEFAC6EzIrlVCzoNuFZr8/oROkD91Z2zHkxOifFN3yIf38bS0Winfu3Bn1BpIY6LY3EdK+3TIj/9+FcbkB+NrXvta/uSi7n6mMHeIspgDQXUwvSrdTgdB5OGZ1UdTwrwG+QnYLZGgVV8pmXdPaqTa9GkUBoHsU9Tg2qEBR6B50MpPKfei2J0D5zt8DLdA9aK+1rUvKuJl0vwMC3Zs2bTI7duzo7eXOg/YY6LYn/9DJ2T3ehe4y+snwbL8CQHf7PaaH+Qr45+FhVhdDK5/2uhG7ipofKSW6rgDQ3fURUEH/s6Dbf42gm42wgJu1vSQPRv3uuFkMH6hDe6S1ZLpH7WcX3o9ewdBNrkqgOznLCLgCBXzojl1d/NKXvtTbyigfdxUylNApuopaQTepsgUKAN0tMFFbF4pAty3rArALykUy3e6eaDdD7bbxrW99y/zkJz/p7dUL7fvO2tPt3wy421lCWZLQA5Kxe7qzoDumn/KAqjxYyqfdCgDd7faX3sUp4EN37OriFVdc0XvA3V+FHHYVNS5aSnVZAaC7y+5X1Hd/j5zA58TERPAHc7K2etilPRcy8zLAWfvzLGRnbWexUHzq1KmBb0xxwTmU/ZBJ5f8iZcz+wtCJXjQI/T2mnxXZS7WKFAC6FZlBKI0pUEemO28VldXFxuxPqmGgOym70gjW31edBd3SIxdI7ZtBXnzxxT64Ftnr7NdnFXMz36H4Bi0z+lCd9+5taScE3T4827jybiIGQXdMP9MYLUQ5igJA9yjqcWxbFPCh201UxK4uZu3pZnWxLSOl+X4A3c17QAQogAIoMJQCQPdQsnFQyxQo++0lF154oTl27Fj/tbWhH3BzJcx74L5lctOdERQAukcQj0NRAAVQoEkFgO4m1adtLQoUeU+3u7po4/cfuL/55pvN1q1b57ynO7RNEODWMgrSiAPoTsMnokQBFECBOQoA3QwKFBhegbxtKO4PoQ3fCkeiwCcKAN2MBhRAARRIVAGgO1HjCFuNAjEP1i9YsEBNvASStgJAd9r+ET0KoECHFQC6O2w+XS9NgRB4+78pUVpjVNRpBYDuTttP51EABVJWAOhO2T1iRwEU6JoCQHfXHKe/KIACrVEA6G6NlXQEBVCgAwoA3R0wmS6iAAq0UwGgu52+0isUQIF2KgB0t9NXeoUCKNABBYDuDphMF1EABVqjANDdGivpCAqgQNcUALq75jj9RQEUSFkBoDtl94gdBVCg0woA3Z22n86jAAokpgDQnZhhhIsCKIACVgGgm7GAAiiAAukoAHSn4xWRogAKoMAsBYBuBgQKoAAKpKMA0J2OV0SKAiiAAkA3YwAFUAAFElUA6E7UOMJGARRAATLdjAEUQAEUSEcBoDsdr4gUBVAABch0MwZQAAVQIFEFgO5EjSNsFEABFCDTzRhAARRAgXQUALrT8YpIUQAFUIBMN2MABVAABRJVAOhO1DjCRgEUQAEy3YwBFEABFEhHgdqg+6yzzkpHFSJFARRAgQQU+MeHH5nln/93Mz4+nkC08SFOT0+bA1NTZtGCBfEHURIFUAAFlCtQG3T/28KFyqXQH96//vUvM2/ePP2BEmHrFZCxKB/GY7NWL/r0Z8zE0s8B3c3aQOsogAIoEKVAbdC9fv36qIAoNFiBF1980Vx11VXmtNNOQyYUaFSBv//97+bAgQPm8ssvbzSOrje+9+23zfiSJa2E7v3vvmtOnz+/6xbTfxRAgRYpcOjQIVOUh8dmZmZmimjw/PPPF26kSP1dKQt0d8Vp/f0EunV41Gbofm962nzw/gkdQg8RxczMx6tBY2OsTg4hH4eUrADjsWRBh6zu1KmThXkY6B5S7FEPA7pHVZDjy1IA6C5LydHqaTN0Hzp23EyuXDGaQA0ezRxpUHyanqPAW2+9ZRYvXmwmJiZQp0EFhklCA90NGQZ0NyQ8zc5RAKDQMSiAbh0+hKJgjuj1pouRAd06XAe6dfgQFQXQHSUThWpQAKCoQeSIJoDuCJEaKsIcaUh4mg0qAHTrGBhAtw4foqIAuqNkolANCgAUNYgc0QTQHSFSQ0WYIw0JT7NAt+IxAHQrNscPDehOyKyWhwpQ6DAY6NbhQygK5oheb7oYGZluHa4D3Tp8iIoC6I6SiUI1KABQ1CByRBNAd4RIDRVhjjQkPM2S6VY8BoBuxeaQ6U7InI6FClDoMBzo1uEDmW69PhDZxwqQ6dYxEoBuHT5ERUGmO0omCtWgANBdg8gRTQDdESI1VIQ50pDwNEumW/EYALoVm0OmOyFzOhYqQKHDcKBbhw9kuvX6QGRkujWNAaBbkxs5sZDpTsislocKdOswGOjW4QPQrdcHIgO6NY0BoFuTG0B3Qm50O1SgW4f/QLcOH4BuvT4QGdCtaQwA3ZrcALoTcqPboQLdOvwHunX4AHTr9YHIgG5NYwDo1uQG0J2QG90OFejW4T/QrcMHoFuvD0QGdGsaA0C3JjeA7oTc6HaoQLcO/4FuHT4A3Xp9IDKgW9MYALo1uQF0J+RGt0MFunX4D3Tr8AHo1usDkQHdmsYA0K3JDaA7ITe6HSrQrcN/oFuHD0C3Xh+IDOjWNAaAbk1uAN0JudHtUIFuHf4D3Tp8ALr1+kBkQLemMaAGuk+ePGkeeugh8+yzz/b1uffee80NN9zQ+3foe1vQLbdr1y6zf/9+c9ttt83S+fHHHzc7duww27ZtM2vWrOl/N6j8IJOOHj1q7rzzTvPGG2/MKbJhwwZzzz33mOeee66SGLLe02312bhx46z+aRpsoVh8/cUn+fj+Fe3Hnj17zNatW82jjz5qlixZYuTfW7ZsGejZwoULizbR6fJ50L1v3z5z//339/5bvnx5plbizc6dO3tzBx+KDSugu5hedZbOmyN1xkJbKMDPwOsYAyqgWy7Qt99+u9m8eXMfsi3crl27tgdgg6DSlhPYFEAPQbSA3O7du/sAZqWXsg8++KDZtGlTNORJe/fdd18PvAfBRFUxdAG6y5oWIegOgZ2MjampKYCvoPBlAgXQXVB8pzjQPbx2VR9Z5hypOlbqb78CQLcOjxuHbgvT69at6wO3lcbNlk1MTPQy4aFMrgu5ocypZJ4l62kh2UL+WWedZZYtW2aWLl1aKXQL2JURwyDo9lcBJPN/2WWXmSeffLIn5VNPPdW/sbAZf6uxe8Mh3y1atMi88MIL/Uy+uzLgHnvppZfOuonxM8n+9/YGR9oVL8WP119/vXfTIx+7SrB9+/ZZmW73OLdOe/Nz5ZVXmkceeaR3jPt9LHRnjT8dU1RnFHlA4c5d6YGsOKxevdo88cQTs/zeu3dvfwXCHzM6e64rqq5Dd2jl0T1nDVrhCp1L/ESKvU7IuHVXYWJXFYvMkbzVoLxRJ+fJV155pRenfPxVY3u8v9KbVy/ft0eBPOh2x1DWimPs+G+PcuX2pHHojl2GzjJ6EHTL3wXiXOAW+aTNf/zjH2ZyctIU3c5QNNNdZgxFMt2h1QM/q2svSPZE7N8cSOySHRZgEhC3J3WZkO4EFXCS7L/V2V+lCAGw3foh9brbgVw/3PZli4j7b/FRLpJy0+ReaOwNVCx0Sz1FtxiVOwXTrK0IUEgPZSXr2muv7d3c+qtTZLqHHwNdhm7//GXP7e6q6aCx5Z9L/NXL0PlT6ncTHHkAW2SOVAHdfoLK9umBBx5Iagvi8LODI10F8qA7Vi2gO1apcLnGoduHo0HdGWS0fyKxAHX++edHbR0ZBrpDe7rdzElVMRSF7rw9tRZ+5CIl+9x9LdwbIslKu9CdN+xsXbJlSLIuoZWMEPDa42655ZYeVNvY3Aue1HXNNdfM+d6/EfD3dA/aNwz05bk59/siQCFH+2PRHWvoX1x/e0RXods/d7kKuteUd955J/i8gJs8OfPMM2dtGbTXFHuTaOu2q26yKnfgwIFZ56aQg0XmiEC3n7V3n1WS+t2Vxm9/+9u9RIg9P4Yy3aFV4djr7fAjkiO1KpAH3e4YkpV5SaadOHGi/5ydjEeZE+4qij9GtfZdU1zJQbf7oKUV0n+QUrYsyBaGO+64wzz22GMm685+GOiO2dNdRQxlQbe7ZUM0dDPd8m/7EKML3XJhsjcbdnuIn52xF6uDBw/2rJGtKyF4difAoAcpr7vuuuCDeOKX3FAB3c2eRooABdBdnVe/++//Nrt27jRnnHFGdY0YY26++WazatWqSttwK5+enjaHjh03kytXBNuMhcdBN3SDoNue5+yzRG7jL730krnkkkt6f/ITAqNCt23XPpsUelbJrjrKqp//YoBY6I5Zqa3NZBqqVYGi0C0MY9lA5pFdzc7a6ltrhxJtrHHoLmN7iQ9x7paSQds77DFVQXcVMYwK3Ra2bVbev3hkZbotYLvLq7aeI0eO9DIuAts+wKcA3WwvKX72ArqLa1bFEXVAtzwb8sMf/tDceOONVXQhWGcedMfuPx0E3e5WOzmnCVBIkkBWxw4fPjxnS6IbZFaW3S1XZI6EVhLtjcXDDz/cg2w3cx1a4fX3dIcy3WwNqG0Iq2uoKHS7K9vumJdtuYOer1PXaYUBNQ7dWQ+yDWO0D1C2ftE+9EqyqqDb3adcVgyjQHfoZFtke4mf1XaPlaVW/zWNqWwv4UHK4c5KRYCCTPdwGsccVcf2kptuusnceuutRv63rk+Z0B16Vaj/IKVdxRPwlk/WG42qgO6nn3661677qlQBa3me5jvf+Y758Y9/POuNWX4MsZluoLuuEayvHaBbhyeNQ7fIkPXKQP9Bubz3UIeylv6Dfa70dUC3tFdGDGVAt91bHXogqMiebnd5N/SQpfsqRn8p2N8rPsqDlO6e72H2dPPKwOFORED3cLqVfVRXoXvU7SWhzLXdUpJ1rnbP5e65J+RrkTlSF3SzvaTsGZhOfUC3Dq9UQLd7InN/dCb04zjDQLfUb59099/J7YNmXuYz5qQ1aLtCbAyDhkYWdMsxdvuI9DG0J9rfcy373Z955pn+KxOzoNvu47J76t193f4rC6V92Xft7kEctI/cfX2jZHV+8YtfzMr4ZL0y0N9XmQfdoYxXkXe065iyOqIoAhR5mW4LOXnL+jp6riuKrkJ3VrbZvamXrW95P7wUOqeH3oxina8i013X9pLYmxVdo5xoylAA6C5DxdHrUAPdo3elvBrkpP2Xv/zFfPWrXy2v0hJqyoPuEpqgChSIUiAPuqMqodDICnQVut1EivvqPv/NIzFvxhmUSBn0PFAV0F3Hg5S8MnDk6ZZ0BUC3DvuA7oAPP/vZz8xXvvKV3J+vrttCoLtuxWlvkAJAt46x0WXoFgf81Tv5m//jOMNkuqUeu4L32muvzXqwsgroHuaVgRKX/UGf0J5u/01fg946pWMkE0XVCpQF3fJ6YXdV3X0Ooeo+tKF+oDshF4HuhMxqeahAtw6Duw7dOlwIR1HlHInZ5qhZG2KrX4E86K4/om62CHQn5DvQnZBZLQ+1SqBouXSldg/oLlXOUisra46EnjOKfWViqR2isqQVALp12Ad06/AhKgqgO0omCtWgQFlAUUOorW4C6NZrb5lzxN9GI7+KGXoFrl41iKxpBYDuph34uH2gW4cPUVEA3VEyUagGBcoEihrCbW0TQLdea5kjer3pYmRAtw7XgW4dPkRFAXRHyUShGhQAKGoQOaIJoDtCpIaKMEcaEp5mgwoA3ToGBtCtw4eoKIDuKJkoVIMCAEUNIkc0AXRHiNRQEeZIQ8LTLNCteAwA3YrN8UMDuhMyq+WhAhQ6DAa6dfgQioI5otebLkZGpluH60C3Dh+iogC6o2SiUA0KABQ1iBzRBNAdIVJDRZgjDQlPs2S6FY8BoFuxOWS6EzKnY6ECFDoMB7p1+ECmW68PRPaxAmS6dYwEoFuHD1FRkOmOkolCNSgAdNcgckQTQHeESA0VYY40JDzNkulWPAaAbsXmkOlOyJyOhQpQ6DAc6NbhA5luvT4QGZluTWMA6NbkRk4sZLoTMqvloQLdOgwGunX4AHTr9YHIgG5NYwDo1uQG0J2QG90OFejW4T/QrcMHoFuvD0QGdGsaA0C3JjeA7oTc6HaoQLcO/4FuHT4A3Xp9IDKgW9MYALo1uQF0J+RGt0MFunX4D3Tr8AHo1usDkQHdmsYA0K3JDaA7ITe6HSrQrcN/oFuHD0C3Xh+IDOjWNAaAbk1uAN0JudHtUIFuHf4D3Tp8ALr1+kBkQLemMQB0a3ID6E7IjW6HCnTr8B/o1uED0K3XByIDujWNgdqge/HixZr6nWQs77//vvn0pz9txsbGkoyfoNujwD//+U/z4YcfmjPOOKM9nUqwJ/PmzzfnnXOOGR8fryz6m266ydx6661G/reuz/T0tDl07LiZXLmiriZLb4cb09IlpcIRFOAXKUcQr8RDa4PuNWvWlBh2N6t69dVXzeWXX27mzZvXTQHotRoFjh8/bgSMVqxIF4rUiDlCIPv+53/MuZ/7HNA9goZVHQp0V6Us9Q6jANA9jGrlH1MbdK9fv7786DtWIz+O0zHDFXcXoNBhTpu3l7z73pT510cf6hB6iChkNeijjz4yp59++hBHcwgKlKvAyZMnzWmnnWbmz59fbsXUVkgB2bFQlIfHZmZmZoq0MgzZF6m/K2WB7q44rb+fQLcOj9oM3Qf/dshc8Pl/1yH0EFHIatDU1JRZuXLlEEdzCAqUq8D+/fvNokWLzNlnn11uxdRWSIHdu3cD3YUUa7Aw0N2g+DQ9SwGgW8eAaDN0s6dbxxgjinYowPYSHT4Ok4Qm092Qd0B3Q8LT7BwFgG4dgwLo1uFDKArmiF5vuhgZ0K3DdaBbhw9RUQDdUTJRqAYFAIoaRI5oAuiOEKmhIsyRhoSn2aACQLeOgQF06/AhKgqgO0omCtWgAEBRg8gRTQDdESI1VIQ50pDwNAt0Kx4DQLdic/zQgO6EzGp5qACFDoOBbh0+hKJgjuj1pouRkenW4TrQrcOHqCiA7iiZKFSDAgBFDSJHNAF0R4jUUBHmSEPC0yyZbsVjAOhWbA6Z7oTM6VioAIUOw4FuHT6Q6dbrA5F9rACZbh0jAejW4UNUFGS6o2SiUA0KAN01iBzRBNAdIVJDRZgjDQlPs2S6FY8BoFuxOWS6EzKnY6ECFDoMB7p1+ECmW68PREamW9MYALo1uZETC5nuhMxqeahAtw6DgW4dPgDden0gMqBb0xgAujW5AXQn5Ea3QwW6dfgPdOvwAejW6wORAd2axgDQrckNoDshN7odKtCtw3+gW4cPQLdeH4gM6NY0BoBuTW4A3Qm50e1QgW4d/gPdOnwAuvX6QGRAt6YxAHRrcgPoTsiNbocKdOvwH+jW4QPQrdcHIgO6NY0BoFuTG0B3Qm50O1SgW4f/QLcOH4BuvT4QGdCtaQwA3ZrcALoTcqPboQLdOvwHunX4AHTr9YHIgG5NYwDo1uQG0J2QG90OFejW4T/QrcMHoFuvD0QGdGsaA2qg++TJk+ahhx4yzz77bF+fe++919xwww29f4e+twXdcrt27TL79+83t9122yydH3/8cbNjxw6zbds2s2bNGmP/LYUuvfRS8+ijj5olS5Zo8mZOLCm9p1t8eOWVV8w999xjFi5caOTfDz744Jw+bdq0aY5XfqGjR4+a++67z9x5551m+fLlAz1y23zuuedmtT+ssXbcbdy4sTduJBaJ4/bbb5/17zfeeGNWExMTE2br1q39eCU2+djxPGw8Wo7Lg+59+/aZ+++/v/dflmfSnz179pidO3f2x4qWPqYQB9Ct16W8OaI3ciJrowL8DLwOV1VAt1ygBWI2b97chxILN2vXru1BmQ8/Vj5bTqBIgCYE3QLYu3fv7oO1/HtqamoWELqAqMOauVGkDt3+zZD1dOnSpZngLX5dffXVPcjN+vigX4aPMdAduiEQkJS/W/CWeuTG7utf/3ouhJYRd9V1lAkUQPfwbgHdw2tX9ZFlzpGqY6X+9isAdOvwuHHotlCzbt26OVlAN1smmUPJhNuMoyufC9o+dAuwSdbTwo+fqZR6YjOpTVuWB9325uXgwYO97P0111xj3nnnnd7NhfztySef7HXhqaeeMjbD7Gag3Yx/SCcXaqU+gcjrr7/e3H333b163ax1KNMdWoEItePqLH2SuCW7LBlz+bgxuxnlrEy3gN2WLVv6VdsVD/mDjJFFixaZF154wdiMtXw/OTk5a/VFVlREUz/TPSgL72vQJrjMAwp37orGMlZWr15tnnjiiZ4HGzZs6I3LvXv39n1JZcWp6fOA234boVvmoJyzL1+z1nx1/Zcz5bbnD3elyZ3b/ry3lfnnutActudTGbcyVuVaJXPftpW3Spc3R1K57rgG+EmIIitaefPGPV9KWX/l2x7v+ptXJ99/okAedMcmrQYlQNE6ToHGoTt20mYZPQi65e/bt2+ftcwfkiU2hjhJqyuVBd1+xt+/YAgk+6sJoo8s69utNe6/pRcuXFrYtSsCtj57QbInSZu1joVuC73nn39+cOuFALH7nVxE5QbKxuz+W6DZxuduLxGwc4/x/fZvzFwdBPTdm73Q9pJB0C3tSJwPPPBAb+tSihfZQaM5Dyh86Jaxd+211/ZWNPyx2qabkepmf7jmNkG3wOzLL79s5s+fb77whS+YJeOfM5MrVwyU1AK1C2H+qumgseWf6/w57Nfjj9msZJENOG+OpHg+qBK4QtDtJ9msL3JOzVv5rHsuam8vD7pj469yDMTGkHK5xqHbh6hBYg4y2p+EFsAF1GQPcV42wkKf/K+/D1ybsVnQHbq4uNtoBJLdPbahDLN7IfEzuiHo9vfsDgJgu6c7lOm29Ya+8z3Pu9CFMt133XWXeeSRR+askLg3aqKT63/WCksR6PYvqnnxaxtvWfHkAYUP3f5YcTUHuod3vg3Q7cL2lVdeaS666CIzPT1tDh07PhC6s1bI3POQrPSFnhdw5+aZZ54565kRe02xN4niTug6lTdus+aIn6GXG4cDBw6YQ4cO9VfcQqttEot9hsne1IddFReJAAAVyUlEQVRWkOSc67fhXwvd55qkXvf70LGy/dPNPkscl1122azriv/slb/6KQmQEydO9J/d8p/HskkTm8QJrWzHMsPws6qdR+ZBt3/9DHklc8IfA215Tqku15ODbvdBSyuSP3EFtmXbwR133GEee+yxXqZx0F2xv9+7LuGHaScLukN72f3tIC74DMru28xyDHS7WVzpj1vn66+/PudByqLQ7UNr3laUEHTLjdT3vve9/pKwq7u9INQF3Snd4OWNT6A7T6F6vk8Zul3Y/uIXv2hWrVrVFy0PumPBaxAYD4JuAXBZ4bPPEmW5mLccnzdH/PObvzIbeubFLSOxDVpBsnBkt236N/z+c03uqoHdVhc61tZrYTiUoLCrnX78dlugXZnwn3uJyXRLn1NcIajnbJDdSlHoFo4KeZW11VdDP7XH0Dh0x27tiF3S8E9cWVtMUgJuGUhthW5/C4mdNP7YGAW67dtGQhOyKuj2t5dI26GbI+0niVB8eUBBprseV1OE7t/97nfmj3/8o/nUpz5lBOxkK4n/+dvf/mYOH3/f/McVq4NC5gGvPWgQdLvQKdcW2V4iN+GyDe3w4cO5WxLzzkXSft4cCUF33gP9sfPKZqVDz0qFBHX7I9+72/Hc8ll7uo8cOTLnuKxEjK9hLHTHskA9MzCdVopCtzsWXa/sTVloFSIdNZqLtHHozlpyH8ZoH2ps/SKxfX1d6G/NWRDfchu3l2RdvIpuz8jaXpJ18akKukNg4LcV776uknlAEQsHshKRt0yvq+e6oqkDuuXi+qtf/aq0jsuWBPnviiuuMKeddlqwXtmC8P//a4P5f/+5bmTodh+gtpWFHhqXzLuAt3zct1v5AdhzVl42PG+OFIFudyuIfXhc4srbtmX7bh9ctg+j2z7Z7LP9t93mMgj+s6DbX92UOt0++t8D3aVNqaiKgO4omSov1Dh0Sw+zXhm4bNmyHizLZ9DbS1yVQplE/yTpL61VrnJJDYz6IKV/gs56kNI+QGiXCq2G1g/7IKXd9+jfPMU8SJn3ysBQRsNfVh6USfEfpPRf3ydjyYJ4FdDtL53KEGBP9yfv7GZPdzknhTqgu5xIP6lFstjywKTsGZU93PLfggULZjVT9fYStzH/+pAF1bHALfWXAd0Wti00u8/m5EG37aP7Viv/rVX25kPK2gfnZW+5Zuhme8lwMxLoHk63so9SAd32jth9HZP8LfTjOHlLGoOW7+2etRtvvNH84Q9/6L1Cz/9ofxXRMK8M/OCDD3oPiA7axuNmOvxXtrkna/nuG9/4hpEBY19BKBB/8cUX915BKJ+8VwaGfhzH9Tg0uENbT0LZGdmzH8p0D/pxHrfdLOiWH3ax7Un/brnllqgfxwm9/q5NF4s8oCiS6bYgE7OsX/YJMPX6UoRuq3kWfOdBd9YKmTv2ZMtD3g8vheZlzJtR8sZO3hzJy3SH4ioyr/z4bMLi4Ycf7r0m1b2WprS9JHY/f54/Xfse6NbhuBro1iGH7ijyoNuPvsr9w7F78UdVNLQvetQ6mzpeLhYvvfSS+rfkxOiTBxQxdVBmdAVShm4fvt98800jD1RK5lsgMOvtJXJsFhjbFbiYrUuDbobd54HsA5b2R9hinMubIzHQHfr1W3tzKjEM2l4S2tNtkwv+d+4bR9w3prhb8vxjh32QctA+YT9pIn0LrWzzysCYkRcuA3QPr12ZRwLdZapZcV15e7rdh19iHvQZJdy6oFtijP1FylH6U/Wx/CJl1Qp3s/42QHcIvuW1gcu/cJFZPXlxprHuapwt6P84zjCZbqnLwuhrr71mbrrppv4PO7kBZf2gUx5023Pbjh07equ68vG3dbg/7iN7ueVNXHKeF+j1X9dn65P/taub8gC5XdV193X7uslbvp555hnjbye0PwTkHuuu/F133XWFXhlYFLr9t5W5P4bWzRk/fK/Lgm57gxT7SubhI27nkUB3Qr7mZbr9965WuV2mTuhuw7YMuVDJpy3vNI0BioSmVrKhtgm6XfgW2LrgolXm6nX/kaw3zJFkrWtl4HnQ3cpOK+wU0K3QlEEh5UF3Ql0h1MQVACh0GNhG6BZl8/Z061A/OwrmSAoudSdGoFuH10C3Dh+iogC6o2SiUA0KABQ1iBzRBNAdIVJDRZgjDQlPs0EFgG4dAwPo1uFDVBRAd5RMFKpBAYCiBpEjmgC6I0RqqAhzpCHhaRboVjwGgG7F5vihAd0JmdXyUAEKHQYD3Tp8CEXBHNHrTRcjI9Otw3WgW4cPUVEA3VEyUagGBQCKGkSOaALojhCpoSLMkYaEp1ky3YrHANCt2Bwy3QmZ07FQAQodhgPdOnwg063XByL7WAEy3TpGAtCtw4eoKMh0R8lEoRoUALprEDmiCaA7QqSGijBHGhKeZsl0Kx4DQLdic8h0J2ROx0IFKHQYDnTr8IFMt14fiIxMt6YxAHRrciMnFjLdCZnV8lCBbh0GA906fAC69fpAZEC3pjEAdGtyA+hOyI1uhwp06/Af6NbhA9Ct1wciA7o1jQGgW5MbQHdCbnQ7VKBbh/9Atw4fgG69PhAZ0K1pDADdmtwAuhNyo9uhAt06/Ae6dfgAdOv1gciAbk1jAOjW5AbQnZAb3Q4V6NbhP9CtwwegW68PRAZ0axoDQLcmN4DuhNzodqhAtw7/gW4dPgDden0gMqBb0xgAujW5AXQn5Ea3QwW6dfgPdOvwAejW6wORAd2axgDQrckNoDshN7odKtCtw3+gW4cPQLdeH4gM6NY0BmqD7osuukhTv5OM5e233zYXXnihmTdvXpLxE3R7FPjggw/MkSNHzLJly9rTqQR7MnXokDnvnHPM+Ph4gtEPDnl6etocOnbcTK5ckWy/uDFN1rpWBs7PwOuwtTboPvfcc3X0OOEoDh48aM455xwzNjaWcC8IvQ0KnDp1ypw4ccKcddZZbehOsn3431OngG6l7gHdSo3paFhAtw7ja4Pu9evX6+hxwlHwi5QJm9ey0AEKHYa2eXvJu+9NmXPGz9Yh9BBRsBo0hGgcUpkC7733njn99NPNZz/72craoOJ8BeTmpygPj83MzMzkV/1JiWHIvkj9XSkLdHfFaf39BLp1eNR26F608N90CD1EFKwGDSEah1SmwNGjR82CBQvMGWecUVkbVJyvwF//+legO18mHSWAbh0+EIUxQLeOUdBm6GZPt44xRhTtUIDtJTp8HCYJTaa7Ie+A7oaEp9k5CgDdOgYF0K3Dh1AUzBG93nQxMqBbh+tAtw4foqIAuqNkolANCgAUNYgc0QTQHSFSQ0WYIw0JT7NBBYBuHQMD6NbhQ1QUQHeUTBSqQQGAogaRI5oAuiNEaqgIc6Qh4WkW6FY8BoBuxeb4oQHdCZnV8lABCh0GA906fAhFwRzR600XIyPTrcN1oFuHD1FRAN1RMlGoBgUAihpEjmgC6I4QqaEizJGGhKdZMt2KxwDQrdgcMt0JmdOxUAEKHYYD3Tp8INOt1wci+1gBMt06RgLQrcOHqCjIdEfJRKEaFAC6axA5ogmgO0KkhoowRxoSnmbJdCseA0C3YnPIdCdkTsdCBSh0GA506/CBTLdeH4iMTLemMQB0a3IjJxYy3QmZ1fJQgW4dBgPdOnwAuvX6QGRAt6YxAHRrcgPoTsiNbocKdOvwH+jW4QPQrdcHIgO6NY0BoFuTG0B3Qm50O1SgW4f/QLcOH4BuvT4QGdCtaQwA3ZrcALoTcqPboQLdOvwHunX4AHTr9YHIgG5NYwDo1uQG0J2QG90OFejW4T/QrcMHoFuvD0QGdGsaA0C3JjeA7oTc6HaoQLcO/4FuHT4A3Xp9IDKgW9MYALo1uQF0J+RGt0MFunX4D3Tr8AHo1usDkQHdmsYA0K3JDaA7ITe6HSrQrcN/oFuHD0C3Xh+IDOjWNAaAbk1uAN0JudHtUIFuHf4D3Tp8ALr1+kBkQLemMaAGuk+ePGkeeugh8+yzz/b1uffee80NN9zQ+3foe1vQLbdr1y6zf/9+c9ttt83S+fHHHzc7duww27ZtM2vWrDFS7sEHH+yV2bBhg7nnnnvMwoULNXkzJ5aiP44jfXzllVei+rZnzx6zc+fOqLKqRSK4WhTIg+6jR4+a++67z9x5551m+fLlvfkWOxbL6oAfQ1n1aqoH6NbkxuxY8uaI3siJrI0KvPXWW2bx4sVmYmKijd1Lpk8qoHvfvn3m9ttvN5s3b+5Dtlww5YK9du3aHkBb6N64cWMPmu3HlpO/C6CHoFuAe/fu3ebRRx81S5Ys6ZURwLT/lu/l44O6NheBbm2OdDeePKDQALwaYqh6hADdVSs8fP15c2T4mjkSBYorAHQX16yKIxqHbgvT69at6wO37ajA+P3339/7T+7OJBPuQ7eUdUHbh24B6ueee85s3bq1l3ELtSdZXvneQngVQpdRZx502xuQN954o6fX1VdfbU6cONHPXks/t2zZ0g/l0ksv7fX5nXfe6f/d/s3enNjVAKnPalhGX6gjbQWygMIdh9JLWV06cOBAP9Mt81FWo+Qjq09uGTveNm3a1L8J9le5/JUpu4ol9djxK/9fbtplLtj65WbdLSt/d9uR78bHx3vHyIqbHfNPP/10P067qibnJpk7119/vbn77rt7bbh11eUu0F2X0sXbAbqLa8YR1SkAdFenbZGaG4duF6wFigd9BmW6s6BbAHz79u25sNiGTLef8berB6tXr+5B9969e3vL/Rac/ZUEf3uJvx0glRuTIoOfssMrkAcUWdtLBLoFrv2tXhZaQzfb7k25O1/9cer+W84Z7hYXOW5qamrOTaiNw79Bt4BuQdudA0eOHOmtztn5JUpKUmDp0qW1rpgB3cOP4aqPzJsjVbdP/SjgKgB06xgPjUN3LMwNgm4Llw888EB/r7Zk0c4///zehT0r+2T3dbvZXR22hKPIynSHdMzbR+vCiwvdPqzYaKS86Gr32WvWitiqVSAPKPKg293f7d94u3NdeuE/a+DW/frrrw/cK563vcTeeAo82yy4tGe3mflzyq1PytlVOJssiD2XlekM0F2mmuXWlTdHym2N2lAgWwGgW8cISQ663QctrYT+g5QC27I0fMcdd5jHHnvMWCAfJHlstr1py7KgOwTYoYcj7U3KwYMHe92xNyVuWflOQMSWcfvtat20HrTfnAJ5QFEUumWrhsxT2dbkQrdsS7FbTtze2q0fZ555Zn8bib8FahB0uw9RS51uptuHbhf4feh2Y5bjmjiPAN3NzYG8lvPmSN7xfI8CZSoAdJep5vB1NQ7dsReqrO0lbvf9LSUxW0yy9pUPL235R44C3S5IhyDDh24/i1d+b6gxZQXygKJM6I5564m779vd1+2/QUUA3t/3nZXpBrqbGaXT09Pm0LHjZnLlimYCKKHVvDlSQhNUgQLRCgDd0VJVWrBx6M4CXnf5d3JycuCDlD50u68MtPVLGdnbLP+WB6zshVb+3gboztteYh9ec9/QkrW9xNeo0lFI5ckpkAcUZUG3CFPkIWf3nHHBBRf093SHHsSO2V6SBd1sL6lu2ALd1WlLzd1UAOjW4Xvj0C0yZL0ycNmyZT1Yls+gt5dkQbd85z80GHr4yn2FoA5r5kaRlen2bxz8BykFut2MoV1iD20vkfeV+69V9AFFq0bEVY8CdUG3vdl2H1B0bzBfeOGFWePa/U6UsJluC932gUw3Mz7s9hK5cb/22mtnvdI09BamKh1he0mV6o5Wd94cGa12jkaBYgoA3cX0qqq0Cuh2wdi+4kv+FvpxnNArA/OgW763r8uzkBl6zZjsJ9X8KfLKQFlCv+aaa3qvA3RvWuyeeNFBHoq0NxvSb8luHz58uP+GE//1ahZONGtEbPUoEAMU7ts/JCp70+ffANrX74X2dMsDjv4rCN0Hn/3XCfr7ut0YLrvsslnPKsjzHs8880z/jSP+W4z8ZyJCD1JefPHF5qmnnuqJzisDyxt7ZLrL05KaUEAUALp1jAM10K1DDt1R5EG37uiJrk0KxEB3m/rr9yX2WZSqNSDTXbXCw9ff9TkyvHIcWYUCQHcVqhavE+gurlljRwDdjUlPw54CXQcKoLvaKUGmu1p9qb17CgDdOjwHunX4EBUF0B0lE4VqUADo/uTXcrN+1KtqK8h0V63w8PV3fY4MrxxHVqEA0F2FqsXrBLqLa9bYEUB3Y9LTMJlulWMA6FZpSy8ooFuvN12MDOjW4TrQrcOHqCiA7iiZKFSDAgBFDSJHNAF0R4jUUBHmSEPC02xQAaBbx8AAunX4EBUF0B0lE4VqUACgqEHkiCaA7giRGirCHGlIeJoFuhWPAaBbsTl+aEB3Qma1PFSAQofBQLcOH0JRMEf0etPFyMh063Ad6NbhQ1QUQHeUTBSqQQGAogaRI5oAuiNEaqgIc6Qh4WmWTLfiMQB0KzaHTHdC5nQsVIBCh+FAtw4fyHTr9YHIPlaATLeOkQB06/AhKgoy3VEyUagGBYDuGkSOaALojhCpoSLMkYaEp1ky3YrHANCt2Bwy3QmZ07FQAQodhgPdOnwg063XByIj061pDADdmtzIiYVMd0JmtTxUoFuHwUC3Dh+Abr0+EBnQrWkMAN2a3AC6E3Kj26EC3Tr8B7p1+AB06/WByIBuTWMA6NbkBtCdkBvdDhXo1uE/0K3DB6Bbrw9EBnRrGgNAtyY3gO6E3Oh2qEC3Dv+Bbh0+AN16fSAyoFvTGAC6NbkBdCfkRrdDBbp1+A906/AB6NbrA5EB3ZrGANCtyQ2gOyE3uh0q0K3Df6Bbhw9At14fiAzo1jQGgG5NbgDdCbnR7VCBbh3+A906fAC69fpAZEC3pjEAdGtyA+hOyI1uhwp06/Af6NbhA9Ct1wciA7o1jQGgW5MbQHdCbnQ7VKBbh/9Atw4fgG69PhAZ0K1pDNQG3WNjY5r6nWQsMzMzvbjRMkn7WhU0Y1GPnZOTk2Z8fFxPQCVEMj09bQ4dO24mV64oobZmquDGtBndaTWswFtvvWUWL15sJiYmkKhBBWqBbnuBbrCfNI0CKIACrVWgbTfiQHdrhyoda0gBoLsh4b1ma4FuHV0lChRAARRAgRQUEOjeu3dvCqESIwqgAAoUUmD9+vWFyo/NkLouJBiFUQAFUAAFUAAFUAAFUKCoAkB3UcUojwIogAIogAIogAIogAIFFQC6CwpGcRRAARRAARRAARRAARQoqgDQXVQxyqMACqAACqAACqAACqBAQQWA7oKCURwFUAAFUAAFUAAFUAAFiioAdBdVjPIogAIogAIogAIogAIoUFABoLugYBRHARRAARRAARRAARRAgaIKAN1FFaM8CqAACqAACqAACqAAChRUAOguKBjFUQAFUAAFUAAFUAAFUKCoAkB3UcUojwIogAIogAIogAIogAIFFQC6CwpGcRRAARRAARRAARRAARQoqgDQXVQxyqMACqAACqAACqAACqBAQQX+D6WnIdCQPVlNAAAAAElFTkSuQmCC&quot;&gt;&lt;/div&gt;&lt;div id=&quot;SDCloudData&quot; style=&quot;display:none&quot;&gt;&lt;/div&gt;" style="text;whiteSpace=wrap;html=1;" vertex="1" parent="1">
          <mxGeometry x="76.5" y="1440" width="763.5" height="240" as="geometry" />
        </mxCell>
        <mxCell id="JcLkRgq_HFh6Dze76G03-127" value="&lt;b&gt;&lt;font style=&quot;font-size: 29px;&quot;&gt;Message Queue Architecture&lt;/font&gt;&lt;/b&gt;" style="rounded=0;whiteSpace=wrap;html=1;" vertex="1" parent="1">
          <mxGeometry x="92.69999999999999" y="60" width="450" height="60" as="geometry" />
        </mxCell>
      </root>
    </mxGraphModel>
  </diagram>
</mxfile>
